<svg width="460" height="183" viewBox="0 0 460 183" fill="none" xmlns="http://www.w3.org/2000/svg">
<g clip-path="url(#clip0)">
<rect x="1" width="459" height="183" rx="8" fill="#FF8C26"/>
<circle cx="39.5" cy="24.5" r="112.5" fill="url(#paint0_linear)"/>
<circle cx="423" cy="171" r="124" fill="url(#paint1_linear)"/>
<circle cx="299" cy="20" r="16.5" stroke="url(#paint2_linear)" stroke-width="7"/>
<circle cx="148" cy="140" r="9.5" stroke="url(#paint3_linear)" stroke-width="5"/>
<path d="M25.2109 86.7109L23.8203 88.1562V92H22.3203V80.625H23.8203V86.25L28.875 80.625H30.6875L26.2109 85.6484L31.0391 92H29.2422L25.2109 86.7109ZM33.5703 84.5703C34.2109 83.7839 35.0443 83.3906 36.0703 83.3906C37.8568 83.3906 38.7578 84.3984 38.7734 86.4141V92H37.3281V86.4062C37.3229 85.7969 37.1823 85.3464 36.9062 85.0547C36.6354 84.763 36.2109 84.6172 35.6328 84.6172C35.1641 84.6172 34.7526 84.7422 34.3984 84.9922C34.0443 85.2422 33.7682 85.5703 33.5703 85.9766V92H32.125V80H33.5703V84.5703ZM40.5547 87.6953C40.5547 86.8672 40.7161 86.1224 41.0391 85.4609C41.3672 84.7995 41.8203 84.2891 42.3984 83.9297C42.9818 83.5703 43.6458 83.3906 44.3906 83.3906C45.5417 83.3906 46.4714 83.7891 47.1797 84.5859C47.8932 85.3828 48.25 86.4427 48.25 87.7656V87.8672C48.25 88.6901 48.0911 89.4297 47.7734 90.0859C47.4609 90.737 47.0104 91.2448 46.4219 91.6094C45.8385 91.974 45.1667 92.1562 44.4062 92.1562C43.2604 92.1562 42.3307 91.7578 41.6172 90.9609C40.9089 90.1641 40.5547 89.1094 40.5547 87.7969V87.6953ZM42.0078 87.8672C42.0078 88.8047 42.224 89.5573 42.6562 90.125C43.0938 90.6927 43.6771 90.9766 44.4062 90.9766C45.1406 90.9766 45.724 90.6901 46.1562 90.1172C46.5885 89.5391 46.8047 88.7318 46.8047 87.6953C46.8047 86.7682 46.5833 86.0182 46.1406 85.4453C45.7031 84.8672 45.1198 84.5781 44.3906 84.5781C43.6771 84.5781 43.1016 84.862 42.6641 85.4297C42.2266 85.9974 42.0078 86.8099 42.0078 87.8672ZM46.7031 82.1406V82.2188H45.5078L44.3359 80.8906L43.1719 82.2188H41.9766V82.125L43.8984 80H44.7734L46.7031 82.1406ZM51.4297 83.5469L51.4766 84.6094C52.1224 83.7969 52.9661 83.3906 54.0078 83.3906C55.7943 83.3906 56.6953 84.3984 56.7109 86.4141V92H55.2656V86.4062C55.2604 85.7969 55.1198 85.3464 54.8438 85.0547C54.5729 84.763 54.1484 84.6172 53.5703 84.6172C53.1016 84.6172 52.6901 84.7422 52.3359 84.9922C51.9818 85.2422 51.7057 85.5703 51.5078 85.9766V92H50.0625V83.5469H51.4297ZM58.5469 87.7031C58.5469 86.3854 58.8516 85.3385 59.4609 84.5625C60.0703 83.7812 60.8776 83.3906 61.8828 83.3906C62.9141 83.3906 63.7188 83.7552 64.2969 84.4844L64.3672 83.5469H65.6875V91.7969C65.6875 92.8906 65.362 93.7526 64.7109 94.3828C64.0651 95.013 63.1953 95.3281 62.1016 95.3281C61.4922 95.3281 60.8958 95.1979 60.3125 94.9375C59.7292 94.6771 59.2839 94.3203 58.9766 93.8672L59.7266 93C60.3464 93.7656 61.1042 94.1484 62 94.1484C62.7031 94.1484 63.25 93.9505 63.6406 93.5547C64.0365 93.1589 64.2344 92.6016 64.2344 91.8828V91.1562C63.6562 91.8229 62.8672 92.1562 61.8672 92.1562C60.8776 92.1562 60.0755 91.7578 59.4609 90.9609C58.8516 90.1641 58.5469 89.0781 58.5469 87.7031ZM60 87.8672C60 88.8203 60.1953 89.5703 60.5859 90.1172C60.9766 90.6589 61.5234 90.9297 62.2266 90.9297C63.138 90.9297 63.8073 90.5156 64.2344 89.6875V85.8281C63.7917 85.0208 63.1276 84.6172 62.2422 84.6172C61.5391 84.6172 60.9896 84.8906 60.5938 85.4375C60.1979 85.9844 60 86.7943 60 87.8672ZM71.5 87.7031C71.5 86.3854 71.8047 85.3385 72.4141 84.5625C73.0234 83.7812 73.8307 83.3906 74.8359 83.3906C75.8672 83.3906 76.6719 83.7552 77.25 84.4844L77.3203 83.5469H78.6406V91.7969C78.6406 92.8906 78.3151 93.7526 77.6641 94.3828C77.0182 95.013 76.1484 95.3281 75.0547 95.3281C74.4453 95.3281 73.849 95.1979 73.2656 94.9375C72.6823 94.6771 72.237 94.3203 71.9297 93.8672L72.6797 93C73.2995 93.7656 74.0573 94.1484 74.9531 94.1484C75.6562 94.1484 76.2031 93.9505 76.5938 93.5547C76.9896 93.1589 77.1875 92.6016 77.1875 91.8828V91.1562C76.6094 91.8229 75.8203 92.1562 74.8203 92.1562C73.8307 92.1562 73.0286 91.7578 72.4141 90.9609C71.8047 90.1641 71.5 89.0781 71.5 87.7031ZM72.9531 87.8672C72.9531 88.8203 73.1484 89.5703 73.5391 90.1172C73.9297 90.6589 74.4766 90.9297 75.1797 90.9297C76.0911 90.9297 76.7604 90.5156 77.1875 89.6875V85.8281C76.7448 85.0208 76.0807 84.6172 75.1953 84.6172C74.4922 84.6172 73.9427 84.8906 73.5469 85.4375C73.151 85.9844 72.9531 86.7943 72.9531 87.8672ZM82.3984 92H80.9531V83.5469H82.3984V92ZM80.8359 81.3047C80.8359 81.0703 80.9062 80.8724 81.0469 80.7109C81.1927 80.5495 81.4062 80.4688 81.6875 80.4688C81.9688 80.4688 82.1823 80.5495 82.3281 80.7109C82.474 80.8724 82.5469 81.0703 82.5469 81.3047C82.5469 81.5391 82.474 81.7344 82.3281 81.8906C82.1823 82.0469 81.9688 82.125 81.6875 82.125C81.4062 82.125 81.1927 82.0469 81.0469 81.8906C80.9062 81.7344 80.8359 81.5391 80.8359 81.3047ZM84.3359 87.6953C84.3359 86.8672 84.4948 86.125 84.8125 85.4688C85.1354 84.8073 85.5885 84.2969 86.1719 83.9375C86.7604 83.5729 87.4271 83.3906 88.1719 83.3906C89.25 83.3906 90.1432 83.75 90.8516 84.4688C91.2214 84.4271 91.4896 84.276 91.6562 84.0156C91.8229 83.7552 91.9062 83.2917 91.9062 82.625H93.0781C93.0781 84.1406 92.5391 85.0312 91.4609 85.2969C91.8411 86.0156 92.0312 86.8151 92.0312 87.6953V87.8672C92.0312 88.6901 91.8698 89.4323 91.5469 90.0938C91.224 90.7552 90.7708 91.2656 90.1875 91.625C89.6042 91.9792 88.9375 92.1562 88.1875 92.1562C87.0312 92.1562 86.099 91.7578 85.3906 90.9609C84.6875 90.1589 84.3359 89.1042 84.3359 87.7969V87.6953ZM85.7812 87.8672C85.7812 88.8047 85.9974 89.5573 86.4297 90.125C86.8672 90.6927 87.4531 90.9766 88.1875 90.9766C88.9115 90.9766 89.4896 90.6927 89.9219 90.125C90.3594 89.5521 90.5781 88.7839 90.5781 87.8203V87.6953C90.5781 86.7526 90.3568 85.9974 89.9141 85.4297C89.4766 84.862 88.8958 84.5781 88.1719 84.5781C87.4531 84.5781 86.875 84.862 86.4375 85.4297C86 85.9974 85.7812 86.8099 85.7812 87.8672ZM88.8828 80H90.6328L88.5391 82.2969H87.375L88.8828 80ZM95.4297 92H93.9844V83.5469H95.4297V92ZM93.8672 81.3047C93.8672 81.0703 93.9375 80.8724 94.0781 80.7109C94.224 80.5495 94.4375 80.4688 94.7188 80.4688C95 80.4688 95.2135 80.5495 95.3594 80.7109C95.5052 80.8724 95.5781 81.0703 95.5781 81.3047C95.5781 81.5391 95.5052 81.7344 95.3594 81.8906C95.2135 82.0469 95 82.125 94.7188 82.125C94.4375 82.125 94.224 82.0469 94.0781 81.8906C93.9375 81.7344 93.8672 81.5391 93.8672 81.3047ZM103.164 84.5703C103.805 83.7839 104.638 83.3906 105.664 83.3906C107.451 83.3906 108.352 84.3984 108.367 86.4141V92H106.922V86.4062C106.917 85.7969 106.776 85.3464 106.5 85.0547C106.229 84.763 105.805 84.6172 105.227 84.6172C104.758 84.6172 104.346 84.7422 103.992 84.9922C103.638 85.2422 103.362 85.5703 103.164 85.9766V92H101.719V80H103.164V84.5703ZM115.75 92C115.667 91.8333 115.599 91.5365 115.547 91.1094C114.875 91.8073 114.073 92.1562 113.141 92.1562C112.307 92.1562 111.622 91.9219 111.086 91.4531C110.555 90.9792 110.289 90.3802 110.289 89.6562C110.289 88.776 110.622 88.0938 111.289 87.6094C111.961 87.1198 112.904 86.875 114.117 86.875H115.523V86.2109C115.523 85.7057 115.372 85.3047 115.07 85.0078C114.768 84.7057 114.323 84.5547 113.734 84.5547C113.219 84.5547 112.786 84.6849 112.438 84.9453C112.089 85.2057 111.914 85.5208 111.914 85.8906H110.461C110.461 85.4688 110.609 85.0625 110.906 84.6719C111.208 84.276 111.615 83.9635 112.125 83.7344C112.641 83.5052 113.206 83.3906 113.82 83.3906C114.794 83.3906 115.557 83.6354 116.109 84.125C116.661 84.6094 116.948 85.2786 116.969 86.1328V90.0234C116.969 90.7995 117.068 91.4167 117.266 91.875V92H115.75ZM113.352 90.8984C113.805 90.8984 114.234 90.7812 114.641 90.5469C115.047 90.3125 115.341 90.0078 115.523 89.6328V87.8984H114.391C112.62 87.8984 111.734 88.4167 111.734 89.4531C111.734 89.9062 111.885 90.2604 112.188 90.5156C112.49 90.7708 112.878 90.8984 113.352 90.8984ZM112.453 93.9141C112.453 93.6797 112.523 93.4818 112.664 93.3203C112.81 93.1589 113.023 93.0781 113.305 93.0781C113.586 93.0781 113.799 93.1589 113.945 93.3203C114.091 93.4818 114.164 93.6797 114.164 93.9141C114.164 94.1484 114.091 94.3438 113.945 94.5C113.799 94.6562 113.586 94.7344 113.305 94.7344C113.023 94.7344 112.81 94.6562 112.664 94.5C112.523 94.3438 112.453 94.1484 112.453 93.9141ZM120.602 83.5469L120.648 84.6094C121.294 83.7969 122.138 83.3906 123.18 83.3906C124.966 83.3906 125.867 84.3984 125.883 86.4141V92H124.438V86.4062C124.432 85.7969 124.292 85.3464 124.016 85.0547C123.745 84.763 123.32 84.6172 122.742 84.6172C122.273 84.6172 121.862 84.7422 121.508 84.9922C121.154 85.2422 120.878 85.5703 120.68 85.9766V92H119.234V83.5469H120.602ZM133.992 81.5V83.5469H135.57V84.6641H133.992V89.9062C133.992 90.2448 134.062 90.5 134.203 90.6719C134.344 90.8385 134.583 90.9219 134.922 90.9219C135.089 90.9219 135.318 90.8906 135.609 90.8281V92C135.229 92.1042 134.859 92.1562 134.5 92.1562C133.854 92.1562 133.367 91.9609 133.039 91.5703C132.711 91.1797 132.547 90.625 132.547 89.9062V84.6641H131.008V83.5469H132.547V81.5H133.992ZM141.352 84.8438C141.133 84.8073 140.896 84.7891 140.641 84.7891C139.693 84.7891 139.049 85.1927 138.711 86V92H137.266V83.5469H138.672L138.695 84.5234C139.169 83.7682 139.841 83.3906 140.711 83.3906C140.992 83.3906 141.206 83.4271 141.352 83.5V84.8438ZM147.906 91.1641C147.344 91.8255 146.518 92.1562 145.43 92.1562C144.529 92.1562 143.841 91.8958 143.367 91.375C142.898 90.849 142.661 90.0729 142.656 89.0469V83.5469H144.102V89.0078C144.102 90.2891 144.622 90.9297 145.664 90.9297C146.768 90.9297 147.503 90.5182 147.867 89.6953V83.5469H149.312V92H147.938L147.906 91.1641ZM154.281 89.8828L156.25 83.5469H157.797L154.398 93.3047C153.872 94.7109 153.036 95.4141 151.891 95.4141L151.617 95.3906L151.078 95.2891V94.1172L151.469 94.1484C151.958 94.1484 152.339 94.0495 152.609 93.8516C152.885 93.6536 153.112 93.2917 153.289 92.7656L153.609 91.9062L150.594 83.5469H152.172L154.281 89.8828ZM166.453 90.9766C166.969 90.9766 167.419 90.8203 167.805 90.5078C168.19 90.1953 168.404 89.8047 168.445 89.3359H169.812C169.786 89.8203 169.62 90.2812 169.312 90.7188C169.005 91.1562 168.594 91.5052 168.078 91.7656C167.568 92.026 167.026 92.1562 166.453 92.1562C165.302 92.1562 164.385 91.7734 163.703 91.0078C163.026 90.237 162.688 89.1849 162.688 87.8516V87.6094C162.688 86.7865 162.839 86.0547 163.141 85.4141C163.443 84.7734 163.875 84.276 164.438 83.9219C165.005 83.5677 165.674 83.3906 166.445 83.3906C167.393 83.3906 168.18 83.6745 168.805 84.2422C169.435 84.8099 169.771 85.5469 169.812 86.4531H168.445C168.404 85.9062 168.195 85.4583 167.82 85.1094C167.451 84.7552 166.992 84.5781 166.445 84.5781C165.711 84.5781 165.141 84.8438 164.734 85.375C164.333 85.901 164.133 86.6641 164.133 87.6641V87.9375C164.133 88.9115 164.333 89.6615 164.734 90.1875C165.135 90.7135 165.708 90.9766 166.453 90.9766ZM176.656 92C176.573 91.8333 176.505 91.5365 176.453 91.1094C175.781 91.8073 174.979 92.1562 174.047 92.1562C173.214 92.1562 172.529 91.9219 171.992 91.4531C171.461 90.9792 171.195 90.3802 171.195 89.6562C171.195 88.776 171.529 88.0938 172.195 87.6094C172.867 87.1198 173.81 86.875 175.023 86.875H176.43V86.2109C176.43 85.7057 176.279 85.3047 175.977 85.0078C175.674 84.7057 175.229 84.5547 174.641 84.5547C174.125 84.5547 173.693 84.6849 173.344 84.9453C172.995 85.2057 172.82 85.5208 172.82 85.8906H171.367C171.367 85.4688 171.516 85.0625 171.812 84.6719C172.115 84.276 172.521 83.9635 173.031 83.7344C173.547 83.5052 174.112 83.3906 174.727 83.3906C175.701 83.3906 176.464 83.6354 177.016 84.125C177.568 84.6094 177.854 85.2786 177.875 86.1328V90.0234C177.875 90.7995 177.974 91.4167 178.172 91.875V92H176.656ZM174.258 90.8984C174.711 90.8984 175.141 90.7812 175.547 90.5469C175.953 90.3125 176.247 90.0078 176.43 89.6328V87.8984H175.297C173.526 87.8984 172.641 88.4167 172.641 89.4531C172.641 89.9062 172.792 90.2604 173.094 90.5156C173.396 90.7708 173.784 90.8984 174.258 90.8984ZM177.25 82.1406V82.2188H176.055L174.883 80.8906L173.719 82.2188H172.523V82.125L174.445 80H175.32L177.25 82.1406ZM173.359 93.9141C173.359 93.6797 173.43 93.4818 173.57 93.3203C173.716 93.1589 173.93 93.0781 174.211 93.0781C174.492 93.0781 174.706 93.1589 174.852 93.3203C174.997 93.4818 175.07 93.6797 175.07 93.9141C175.07 94.1484 174.997 94.3438 174.852 94.5C174.706 94.6562 174.492 94.7344 174.211 94.7344C173.93 94.7344 173.716 94.6562 173.57 94.5C173.43 94.3438 173.359 94.1484 173.359 93.9141ZM187.281 87.8672C187.281 89.1536 186.987 90.1901 186.398 90.9766C185.81 91.763 185.013 92.1562 184.008 92.1562C182.982 92.1562 182.174 91.8307 181.586 91.1797V95.25H180.141V83.5469H181.461L181.531 84.4844C182.12 83.7552 182.938 83.3906 183.984 83.3906C185 83.3906 185.802 83.7734 186.391 84.5391C186.984 85.3047 187.281 86.3698 187.281 87.7344V87.8672ZM185.836 87.7031C185.836 86.75 185.633 85.9974 185.227 85.4453C184.82 84.8932 184.263 84.6172 183.555 84.6172C182.68 84.6172 182.023 85.0052 181.586 85.7812V89.8203C182.018 90.5911 182.68 90.9766 183.57 90.9766C184.263 90.9766 184.812 90.7031 185.219 90.1562C185.63 89.6042 185.836 88.7865 185.836 87.7031Z" fill="white"/>
<path d="M29.0322 148.127H25.833V157H24.5273V148.127H21.335V147.047H29.0322V148.127ZM31.5752 150.499C32.1357 149.811 32.8649 149.467 33.7627 149.467C35.3258 149.467 36.1143 150.349 36.1279 152.112V157H34.8633V152.105C34.8587 151.572 34.7357 151.178 34.4941 150.923C34.2572 150.668 33.8857 150.54 33.3799 150.54C32.9697 150.54 32.6097 150.649 32.2998 150.868C31.9899 151.087 31.7484 151.374 31.5752 151.729V157H30.3105V146.5H31.5752V150.499ZM37.6865 153.233C37.6865 152.509 37.8255 151.859 38.1035 151.285C38.3861 150.706 38.7826 150.26 39.293 149.945C39.8079 149.626 40.3913 149.467 41.043 149.467C41.9863 149.467 42.7679 149.781 43.3877 150.41C43.7113 150.374 43.946 150.242 44.0918 150.014C44.2376 149.786 44.3105 149.38 44.3105 148.797H45.3359C45.3359 150.123 44.8643 150.902 43.9209 151.135C44.2536 151.764 44.4199 152.463 44.4199 153.233V153.384C44.4199 154.104 44.2786 154.753 43.9961 155.332C43.7135 155.911 43.3171 156.357 42.8066 156.672C42.2962 156.982 41.7129 157.137 41.0566 157.137C40.0449 157.137 39.2292 156.788 38.6094 156.091C37.9941 155.389 37.6865 154.466 37.6865 153.322V153.233ZM38.9512 153.384C38.9512 154.204 39.1403 154.863 39.5186 155.359C39.9014 155.856 40.4141 156.104 41.0566 156.104C41.6901 156.104 42.196 155.856 42.5742 155.359C42.957 154.858 43.1484 154.186 43.1484 153.343V153.233C43.1484 152.409 42.9548 151.748 42.5674 151.251C42.1846 150.754 41.6764 150.506 41.043 150.506C40.4141 150.506 39.9082 150.754 39.5254 151.251C39.1426 151.748 38.9512 152.459 38.9512 153.384ZM41.7676 148.51H40.6807L38.917 146.5H40.4414L41.7676 148.51ZM47.3936 157H46.1289V149.604H47.3936V157ZM46.0264 147.642C46.0264 147.437 46.0879 147.263 46.2109 147.122C46.3385 146.981 46.5254 146.91 46.7715 146.91C47.0176 146.91 47.2044 146.981 47.332 147.122C47.4596 147.263 47.5234 147.437 47.5234 147.642C47.5234 147.847 47.4596 148.018 47.332 148.154C47.2044 148.291 47.0176 148.359 46.7715 148.359C46.5254 148.359 46.3385 148.291 46.2109 148.154C46.0879 148.018 46.0264 147.847 46.0264 147.642ZM54.1611 150.499C54.7217 149.811 55.4508 149.467 56.3486 149.467C57.9118 149.467 58.7002 150.349 58.7139 152.112V157H57.4492V152.105C57.4447 151.572 57.3216 151.178 57.0801 150.923C56.8431 150.668 56.4717 150.54 55.9658 150.54C55.5557 150.54 55.1956 150.649 54.8857 150.868C54.5758 151.087 54.3343 151.374 54.1611 151.729V157H52.8965V146.5H54.1611V150.499ZM65.1738 157C65.1009 156.854 65.0417 156.594 64.9961 156.221C64.4082 156.831 63.7064 157.137 62.8906 157.137C62.1615 157.137 61.5622 156.932 61.0928 156.521C60.6279 156.107 60.3955 155.583 60.3955 154.949C60.3955 154.179 60.6872 153.582 61.2705 153.158C61.8584 152.73 62.6833 152.516 63.7451 152.516H64.9756V151.935C64.9756 151.493 64.8434 151.142 64.5791 150.882C64.3148 150.618 63.9251 150.485 63.4102 150.485C62.959 150.485 62.5807 150.599 62.2754 150.827C61.9701 151.055 61.8174 151.331 61.8174 151.654H60.5459C60.5459 151.285 60.6758 150.93 60.9355 150.588C61.1999 150.242 61.5553 149.968 62.002 149.768C62.4531 149.567 62.9476 149.467 63.4854 149.467C64.3376 149.467 65.0052 149.681 65.4883 150.109C65.9714 150.533 66.222 151.119 66.2402 151.866V155.271C66.2402 155.95 66.3268 156.49 66.5 156.891V157H65.1738ZM63.0752 156.036C63.4717 156.036 63.8477 155.934 64.2031 155.729C64.5586 155.523 64.8161 155.257 64.9756 154.929V153.411H63.9844C62.4349 153.411 61.6602 153.865 61.6602 154.771C61.6602 155.168 61.7923 155.478 62.0566 155.701C62.321 155.924 62.6605 156.036 63.0752 156.036ZM62.2891 158.675C62.2891 158.47 62.3506 158.297 62.4736 158.155C62.6012 158.014 62.7881 157.943 63.0342 157.943C63.2803 157.943 63.4671 158.014 63.5947 158.155C63.7223 158.297 63.7861 158.47 63.7861 158.675C63.7861 158.88 63.7223 159.051 63.5947 159.188C63.4671 159.324 63.2803 159.393 63.0342 159.393C62.7881 159.393 62.6012 159.324 62.4736 159.188C62.3506 159.051 62.2891 158.88 62.2891 158.675ZM69.4189 149.604L69.46 150.533C70.0251 149.822 70.7633 149.467 71.6748 149.467C73.238 149.467 74.0264 150.349 74.04 152.112V157H72.7754V152.105C72.7708 151.572 72.6478 151.178 72.4062 150.923C72.1693 150.668 71.7979 150.54 71.292 150.54C70.8818 150.54 70.5218 150.649 70.2119 150.868C69.902 151.087 69.6605 151.374 69.4873 151.729V157H68.2227V149.604H69.4189ZM83.7266 155.038C83.7266 154.696 83.5967 154.432 83.3369 154.245C83.0817 154.054 82.6328 153.89 81.9902 153.753C81.3522 153.616 80.8441 153.452 80.4658 153.261C80.0921 153.069 79.8141 152.841 79.6318 152.577C79.4541 152.313 79.3652 151.998 79.3652 151.634C79.3652 151.028 79.6204 150.515 80.1309 150.096C80.6458 149.676 81.3021 149.467 82.0996 149.467C82.9382 149.467 83.6172 149.683 84.1367 150.116C84.6608 150.549 84.9229 151.103 84.9229 151.777H83.6514C83.6514 151.431 83.5033 151.132 83.207 150.882C82.9154 150.631 82.5462 150.506 82.0996 150.506C81.6393 150.506 81.2793 150.606 81.0195 150.807C80.7598 151.007 80.6299 151.269 80.6299 151.593C80.6299 151.898 80.7507 152.128 80.9922 152.283C81.2337 152.438 81.6689 152.586 82.2979 152.728C82.9313 152.869 83.444 153.037 83.8359 153.233C84.2279 153.429 84.5173 153.666 84.7041 153.944C84.8955 154.218 84.9912 154.553 84.9912 154.949C84.9912 155.61 84.7269 156.141 84.1982 156.542C83.6696 156.938 82.9837 157.137 82.1406 157.137C81.5482 157.137 81.0241 157.032 80.5684 156.822C80.1126 156.613 79.7549 156.321 79.4951 155.947C79.2399 155.569 79.1123 155.161 79.1123 154.724H80.377C80.3997 155.147 80.5684 155.485 80.8828 155.735C81.2018 155.981 81.6211 156.104 82.1406 156.104C82.6191 156.104 83.002 156.009 83.2891 155.817C83.5807 155.621 83.7266 155.362 83.7266 155.038ZM94.5342 149.016C94.5342 149.836 94.3656 150.415 94.0283 150.752C93.6956 151.085 93.1647 151.26 92.4355 151.278V157H91.2324L91.2051 156.269C90.7129 156.847 89.9906 157.137 89.0381 157.137C88.2497 157.137 87.6481 156.909 87.2334 156.453C86.8232 155.993 86.6159 155.314 86.6113 154.416V149.604H87.876V154.382C87.876 155.503 88.3317 156.063 89.2432 156.063C90.2093 156.063 90.8519 155.703 91.1709 154.983V149.604H92.4355V150.499C92.7454 150.49 92.9779 150.447 93.1328 150.369C93.2878 150.287 93.3971 150.164 93.4609 150C93.5293 149.836 93.5635 149.508 93.5635 149.016H94.5342ZM89.2227 148.544L89.2158 147.498C89.5576 147.475 89.8083 147.43 89.9678 147.361C90.1273 147.293 90.207 147.17 90.207 146.992C90.207 146.814 90.1022 146.682 89.8926 146.596C89.6875 146.505 89.4141 146.459 89.0723 146.459L89.1201 145.734C89.7992 145.734 90.3141 145.853 90.665 146.09C91.016 146.322 91.1914 146.632 91.1914 147.02C91.1914 147.298 91.1025 147.528 90.9248 147.71C90.7471 147.892 90.4827 148.008 90.1318 148.059L90.125 148.544H89.2227ZM98.4717 153.24C98.4717 152.105 98.7406 151.194 99.2783 150.506C99.8161 149.813 100.52 149.467 101.391 149.467C102.257 149.467 102.942 149.763 103.448 150.355V146.5H104.713V157H103.551L103.489 156.207C102.983 156.827 102.279 157.137 101.377 157.137C100.52 157.137 99.8206 156.786 99.2783 156.084C98.7406 155.382 98.4717 154.466 98.4717 153.336V153.24ZM99.7363 153.384C99.7363 154.222 99.9095 154.879 100.256 155.353C100.602 155.826 101.081 156.063 101.691 156.063C102.493 156.063 103.079 155.703 103.448 154.983V151.586C103.07 150.889 102.489 150.54 101.705 150.54C101.085 150.54 100.602 150.779 100.256 151.258C99.9095 151.736 99.7363 152.445 99.7363 153.384ZM111.248 156.269C110.756 156.847 110.034 157.137 109.081 157.137C108.293 157.137 107.691 156.909 107.276 156.453C106.866 155.993 106.659 155.314 106.654 154.416V149.604H107.919V154.382C107.919 155.503 108.375 156.063 109.286 156.063C110.252 156.063 110.895 155.703 111.214 154.983V149.604H112.479V157H111.275L111.248 156.269ZM108.411 158.675C108.411 158.47 108.473 158.297 108.596 158.155C108.723 158.014 108.91 157.943 109.156 157.943C109.402 157.943 109.589 158.014 109.717 158.155C109.844 158.297 109.908 158.47 109.908 158.675C109.908 158.88 109.844 159.051 109.717 159.188C109.589 159.324 109.402 159.393 109.156 159.393C108.91 159.393 108.723 159.324 108.596 159.188C108.473 159.051 108.411 158.88 108.411 158.675ZM115.603 149.604L115.644 150.533C116.209 149.822 116.947 149.467 117.858 149.467C119.422 149.467 120.21 150.349 120.224 152.112V157H118.959V152.105C118.954 151.572 118.831 151.178 118.59 150.923C118.353 150.668 117.981 150.54 117.476 150.54C117.065 150.54 116.705 150.649 116.396 150.868C116.086 151.087 115.844 151.374 115.671 151.729V157H114.406V149.604H115.603ZM121.83 153.24C121.83 152.087 122.097 151.171 122.63 150.492C123.163 149.809 123.869 149.467 124.749 149.467C125.651 149.467 126.355 149.786 126.861 150.424L126.923 149.604H128.078V156.822C128.078 157.779 127.793 158.534 127.224 159.085C126.659 159.636 125.897 159.912 124.94 159.912C124.407 159.912 123.885 159.798 123.375 159.57C122.865 159.342 122.475 159.03 122.206 158.634L122.862 157.875C123.405 158.545 124.068 158.88 124.852 158.88C125.467 158.88 125.945 158.707 126.287 158.36C126.633 158.014 126.807 157.526 126.807 156.897V156.262C126.301 156.845 125.61 157.137 124.735 157.137C123.869 157.137 123.168 156.788 122.63 156.091C122.097 155.394 121.83 154.443 121.83 153.24ZM123.102 153.384C123.102 154.218 123.272 154.874 123.614 155.353C123.956 155.826 124.435 156.063 125.05 156.063C125.847 156.063 126.433 155.701 126.807 154.977V151.6C126.419 150.893 125.838 150.54 125.063 150.54C124.448 150.54 123.967 150.779 123.621 151.258C123.275 151.736 123.102 152.445 123.102 153.384ZM140.684 148.571H139.398V157H138.236L138.175 156.207C137.669 156.827 136.965 157.137 136.062 157.137C135.206 157.137 134.506 156.786 133.964 156.084C133.426 155.382 133.157 154.466 133.157 153.336V153.24C133.157 152.105 133.426 151.194 133.964 150.506C134.502 149.813 135.206 149.467 136.076 149.467C136.942 149.467 137.628 149.763 138.134 150.355V148.571H136.329V147.539H138.134V146.5H139.398V147.539H140.684V148.571ZM134.422 153.384C134.422 154.222 134.595 154.879 134.941 155.353C135.288 155.826 135.766 156.063 136.377 156.063C137.179 156.063 137.765 155.703 138.134 154.983V151.586C137.756 150.889 137.174 150.54 136.391 150.54C135.771 150.54 135.288 150.779 134.941 151.258C134.595 151.736 134.422 152.445 134.422 153.384ZM144.901 157.137C143.899 157.137 143.083 156.809 142.454 156.152C141.825 155.492 141.511 154.61 141.511 153.507V153.274C141.511 152.541 141.65 151.887 141.928 151.312C142.21 150.734 142.602 150.283 143.104 149.959C143.609 149.631 144.156 149.467 144.744 149.467C145.706 149.467 146.453 149.784 146.986 150.417C147.52 151.05 147.786 151.957 147.786 153.138V153.664H142.775C142.794 154.393 143.006 154.983 143.411 155.435C143.821 155.881 144.341 156.104 144.97 156.104C145.416 156.104 145.795 156.013 146.104 155.831C146.414 155.649 146.686 155.407 146.918 155.106L147.69 155.708C147.071 156.66 146.141 157.137 144.901 157.137ZM144.744 150.506C144.234 150.506 143.805 150.693 143.459 151.066C143.113 151.436 142.898 151.955 142.816 152.625H146.521V152.529C146.485 151.887 146.312 151.39 146.002 151.039C145.692 150.684 145.273 150.506 144.744 150.506ZM144.225 146.712H145.264L147.246 148.51H145.899L144.744 147.423L143.582 148.51H142.229L144.225 146.712ZM147.711 145.529H149.078L147.704 147.3H146.74L147.711 145.529ZM150.452 149.604L150.493 150.533C151.058 149.822 151.797 149.467 152.708 149.467C154.271 149.467 155.06 150.349 155.073 152.112V157H153.809V152.105C153.804 151.572 153.681 151.178 153.439 150.923C153.202 150.668 152.831 150.54 152.325 150.54C151.915 150.54 151.555 150.649 151.245 150.868C150.935 151.087 150.694 151.374 150.521 151.729V157H149.256V149.604H150.452Z" fill="white"/>
<path d="M320.243 157H318.589V149.009L316.148 149.843V148.441L320.031 147.013H320.243V157ZM328.412 152.837C327.856 153.425 327.207 153.719 326.464 153.719C325.589 153.719 324.892 153.413 324.372 152.803C323.853 152.188 323.593 151.381 323.593 150.383C323.593 149.727 323.725 149.132 323.989 148.599C324.254 148.065 324.63 147.651 325.117 147.354C325.605 147.058 326.17 146.91 326.812 146.91C327.815 146.91 328.61 147.284 329.198 148.031C329.786 148.779 330.08 149.779 330.08 151.032V151.497C330.08 153.293 329.674 154.662 328.863 155.605C328.052 156.549 326.842 157.027 325.233 157.041H325.035V155.667H325.274C326.254 155.653 327.006 155.419 327.53 154.963C328.054 154.503 328.348 153.794 328.412 152.837ZM326.812 152.42C327.145 152.42 327.457 152.324 327.749 152.133C328.041 151.941 328.266 151.677 328.426 151.34V150.69C328.426 149.957 328.275 149.367 327.975 148.92C327.674 148.473 327.284 148.25 326.806 148.25C326.327 148.25 325.944 148.448 325.657 148.845C325.375 149.237 325.233 149.733 325.233 150.335C325.233 150.959 325.377 151.463 325.664 151.846C325.951 152.229 326.334 152.42 326.812 152.42ZM332.767 155.25C333.076 155.25 333.316 155.339 333.484 155.517C333.653 155.69 333.737 155.909 333.737 156.173C333.737 156.433 333.653 156.649 333.484 156.822C333.316 156.991 333.076 157.075 332.767 157.075C332.47 157.075 332.236 156.991 332.062 156.822C331.889 156.654 331.803 156.437 331.803 156.173C331.803 155.909 331.887 155.69 332.056 155.517C332.224 155.339 332.461 155.25 332.767 155.25ZM332.767 149.446C333.076 149.446 333.316 149.535 333.484 149.713C333.653 149.886 333.737 150.105 333.737 150.369C333.737 150.629 333.653 150.845 333.484 151.019C333.316 151.187 333.076 151.271 332.767 151.271C332.47 151.271 332.236 151.187 332.062 151.019C331.889 150.85 331.803 150.633 331.803 150.369C331.803 150.105 331.887 149.886 332.056 149.713C332.224 149.535 332.461 149.446 332.767 149.446ZM341.865 152.81C341.865 154.241 341.596 155.321 341.059 156.05C340.525 156.774 339.712 157.137 338.618 157.137C337.543 157.137 336.731 156.784 336.185 156.077C335.642 155.366 335.364 154.316 335.351 152.926V151.203C335.351 149.772 335.617 148.699 336.15 147.983C336.688 147.268 337.506 146.91 338.604 146.91C339.694 146.91 340.505 147.259 341.038 147.956C341.576 148.653 341.852 149.697 341.865 151.087V152.81ZM340.204 150.95C340.204 150.016 340.076 149.332 339.821 148.899C339.566 148.462 339.16 148.243 338.604 148.243C338.062 148.243 337.663 148.451 337.408 148.865C337.153 149.275 337.019 149.918 337.005 150.793V153.049C337.005 153.979 337.135 154.671 337.395 155.127C337.654 155.583 338.062 155.811 338.618 155.811C339.151 155.811 339.546 155.601 339.801 155.182C340.056 154.758 340.19 154.097 340.204 153.199V150.95ZM349.822 152.81C349.822 154.241 349.553 155.321 349.016 156.05C348.482 156.774 347.669 157.137 346.575 157.137C345.5 157.137 344.688 156.784 344.142 156.077C343.599 155.366 343.321 154.316 343.308 152.926V151.203C343.308 149.772 343.574 148.699 344.107 147.983C344.645 147.268 345.463 146.91 346.562 146.91C347.651 146.91 348.462 147.259 348.995 147.956C349.533 148.653 349.809 149.697 349.822 151.087V152.81ZM348.161 150.95C348.161 150.016 348.034 149.332 347.778 148.899C347.523 148.462 347.118 148.243 346.562 148.243C346.019 148.243 345.62 148.451 345.365 148.865C345.11 149.275 344.976 149.918 344.962 150.793V153.049C344.962 153.979 345.092 154.671 345.352 155.127C345.611 155.583 346.019 155.811 346.575 155.811C347.108 155.811 347.503 155.601 347.758 155.182C348.013 154.758 348.147 154.097 348.161 153.199V150.95ZM361.471 157H354.778V155.858L358.094 152.242C358.572 151.709 358.912 151.265 359.112 150.909C359.317 150.549 359.42 150.189 359.42 149.829C359.42 149.355 359.285 148.972 359.017 148.681C358.752 148.389 358.395 148.243 357.943 148.243C357.406 148.243 356.989 148.407 356.692 148.735C356.396 149.063 356.248 149.512 356.248 150.082H354.587C354.587 149.476 354.724 148.931 354.997 148.448C355.275 147.961 355.669 147.582 356.18 147.313C356.695 147.045 357.287 146.91 357.957 146.91C358.923 146.91 359.684 147.154 360.24 147.642C360.801 148.125 361.081 148.795 361.081 149.651C361.081 150.148 360.94 150.67 360.657 151.217C360.379 151.759 359.921 152.377 359.283 153.069L356.85 155.674H361.471V157ZM367.445 152.837C366.889 153.425 366.24 153.719 365.497 153.719C364.622 153.719 363.925 153.413 363.405 152.803C362.886 152.188 362.626 151.381 362.626 150.383C362.626 149.727 362.758 149.132 363.022 148.599C363.287 148.065 363.663 147.651 364.15 147.354C364.638 147.058 365.203 146.91 365.846 146.91C366.848 146.91 367.644 147.284 368.231 148.031C368.819 148.779 369.113 149.779 369.113 151.032V151.497C369.113 153.293 368.708 154.662 367.896 155.605C367.085 156.549 365.875 157.027 364.267 157.041H364.068V155.667H364.308C365.287 155.653 366.039 155.419 366.563 154.963C367.088 154.503 367.382 153.794 367.445 152.837ZM365.846 152.42C366.178 152.42 366.491 152.324 366.782 152.133C367.074 151.941 367.299 151.677 367.459 151.34V150.69C367.459 149.957 367.309 149.367 367.008 148.92C366.707 148.473 366.317 148.25 365.839 148.25C365.36 148.25 364.978 148.448 364.69 148.845C364.408 149.237 364.267 149.733 364.267 150.335C364.267 150.959 364.41 151.463 364.697 151.846C364.984 152.229 365.367 152.42 365.846 152.42ZM371.267 157.854H369.961L373.878 147.047H375.184L371.267 157.854ZM382.717 152.81C382.717 154.241 382.448 155.321 381.91 156.05C381.377 156.774 380.563 157.137 379.47 157.137C378.394 157.137 377.583 156.784 377.036 156.077C376.494 155.366 376.216 154.316 376.202 152.926V151.203C376.202 149.772 376.469 148.699 377.002 147.983C377.54 147.268 378.358 146.91 379.456 146.91C380.545 146.91 381.356 147.259 381.89 147.956C382.427 148.653 382.703 149.697 382.717 151.087V152.81ZM381.056 150.95C381.056 150.016 380.928 149.332 380.673 148.899C380.418 148.462 380.012 148.243 379.456 148.243C378.914 148.243 378.515 148.451 378.26 148.865C378.005 149.275 377.87 149.918 377.856 150.793V153.049C377.856 153.979 377.986 154.671 378.246 155.127C378.506 155.583 378.914 155.811 379.47 155.811C380.003 155.811 380.397 155.601 380.652 155.182C380.908 154.758 381.042 154.097 381.056 153.199V150.95ZM390.811 147.97L386.832 157H385.089L389.061 148.38H383.913V147.047H390.811V147.97ZM392.718 157.854H391.412L395.329 147.047H396.635L392.718 157.854ZM404.373 157H397.681V155.858L400.996 152.242C401.475 151.709 401.814 151.265 402.015 150.909C402.22 150.549 402.322 150.189 402.322 149.829C402.322 149.355 402.188 148.972 401.919 148.681C401.655 148.389 401.297 148.243 400.846 148.243C400.308 148.243 399.891 148.407 399.595 148.735C399.299 149.063 399.15 149.512 399.15 150.082H397.489C397.489 149.476 397.626 148.931 397.899 148.448C398.177 147.961 398.572 147.582 399.082 147.313C399.597 147.045 400.189 146.91 400.859 146.91C401.826 146.91 402.587 147.154 403.143 147.642C403.703 148.125 403.983 148.795 403.983 149.651C403.983 150.148 403.842 150.67 403.56 151.217C403.282 151.759 402.824 152.377 402.186 153.069L399.752 155.674H404.373V157ZM412.125 152.81C412.125 154.241 411.856 155.321 411.318 156.05C410.785 156.774 409.972 157.137 408.878 157.137C407.802 157.137 406.991 156.784 406.444 156.077C405.902 155.366 405.624 154.316 405.61 152.926V151.203C405.61 149.772 405.877 148.699 406.41 147.983C406.948 147.268 407.766 146.91 408.864 146.91C409.953 146.91 410.765 147.259 411.298 147.956C411.836 148.653 412.111 149.697 412.125 151.087V152.81ZM410.464 150.95C410.464 150.016 410.336 149.332 410.081 148.899C409.826 148.462 409.42 148.243 408.864 148.243C408.322 148.243 407.923 148.451 407.668 148.865C407.413 149.275 407.278 149.918 407.265 150.793V153.049C407.265 153.979 407.395 154.671 407.654 155.127C407.914 155.583 408.322 155.811 408.878 155.811C409.411 155.811 409.805 155.601 410.061 155.182C410.316 154.758 410.45 154.097 410.464 153.199V150.95ZM420.287 157H413.595V155.858L416.91 152.242C417.389 151.709 417.728 151.265 417.929 150.909C418.134 150.549 418.236 150.189 418.236 149.829C418.236 149.355 418.102 148.972 417.833 148.681C417.569 148.389 417.211 148.243 416.76 148.243C416.222 148.243 415.805 148.407 415.509 148.735C415.213 149.063 415.064 149.512 415.064 150.082H413.403C413.403 149.476 413.54 148.931 413.813 148.448C414.091 147.961 414.486 147.582 414.996 147.313C415.511 147.045 416.104 146.91 416.773 146.91C417.74 146.91 418.501 147.154 419.057 147.642C419.617 148.125 419.897 148.795 419.897 149.651C419.897 150.148 419.756 150.67 419.474 151.217C419.196 151.759 418.738 152.377 418.1 153.069L415.666 155.674H420.287V157ZM426.05 157H424.396V149.009L421.955 149.843V148.441L425.838 147.013H426.05V157Z" fill="white"/>
<path d="M31.3477 34.7617V37.5508H31.0195C29.4883 37.5742 28.2539 37.9727 27.3164 38.7461C26.3867 39.5195 25.8281 40.5938 25.6406 41.9688C26.5469 41.0469 27.6914 40.5859 29.0742 40.5859C30.5586 40.5859 31.7383 41.1172 32.6133 42.1797C33.4883 43.2422 33.9258 44.6406 33.9258 46.375C33.9258 47.4844 33.6836 48.4883 33.1992 49.3867C32.7227 50.2852 32.043 50.9844 31.1602 51.4844C30.2852 51.9844 29.293 52.2344 28.1836 52.2344C26.3867 52.2344 24.9336 51.6094 23.8242 50.3594C22.7227 49.1094 22.1719 47.4414 22.1719 45.3555V44.1367C22.1719 42.2852 22.5195 40.6523 23.2148 39.2383C23.918 37.8164 24.9219 36.7188 26.2266 35.9453C27.5391 35.1641 29.0586 34.7695 30.7852 34.7617H31.3477ZM28.043 43.3047C27.4961 43.3047 27 43.4492 26.5547 43.7383C26.1094 44.0195 25.7812 44.3945 25.5703 44.8633V45.8945C25.5703 47.0273 25.793 47.9141 26.2383 48.5547C26.6836 49.1875 27.3086 49.5039 28.1133 49.5039C28.8398 49.5039 29.4258 49.2188 29.8711 48.6484C30.3242 48.0703 30.5508 47.3242 30.5508 46.4102C30.5508 45.4805 30.3242 44.7305 29.8711 44.1602C29.418 43.5898 28.8086 43.3047 28.043 43.3047ZM46.1133 36.2031V39.3203H48.2812V41.8047H46.1133V48.1328C46.1133 48.6016 46.2031 48.9375 46.3828 49.1406C46.5625 49.3438 46.9062 49.4453 47.4141 49.4453C47.7891 49.4453 48.1211 49.418 48.4102 49.3633V51.9297C47.7461 52.1328 47.0625 52.2344 46.3594 52.2344C43.9844 52.2344 42.7734 51.0352 42.7266 48.6367V41.8047H40.875V39.3203H42.7266V36.2031H46.1133ZM53.4727 40.7031C54.3711 39.625 55.5 39.0859 56.8594 39.0859C59.6094 39.0859 61.0039 40.6836 61.043 43.8789V52H57.6562V43.9727C57.6562 43.2461 57.5 42.7109 57.1875 42.3672C56.875 42.0156 56.3555 41.8398 55.6289 41.8398C54.6367 41.8398 53.918 42.2227 53.4727 42.9883V52H50.0859V34H53.4727V40.7031ZM70.9453 52C70.7891 51.6953 70.6758 51.3164 70.6055 50.8633C69.7852 51.7773 68.7188 52.2344 67.4062 52.2344C66.1641 52.2344 65.1328 51.875 64.3125 51.1562C63.5 50.4375 63.0938 49.5312 63.0938 48.4375C63.0938 47.0938 63.5898 46.0625 64.582 45.3438C65.582 44.625 67.0234 44.2617 68.9062 44.2539H70.4648V43.5273C70.4648 42.9414 70.3125 42.4727 70.0078 42.1211C69.7109 41.7695 69.2383 41.5938 68.5898 41.5938C68.0195 41.5938 67.5703 41.7305 67.2422 42.0039C66.9219 42.2773 66.7617 42.6523 66.7617 43.1289H63.375C63.375 42.3945 63.6016 41.7148 64.0547 41.0898C64.5078 40.4648 65.1484 39.9766 65.9766 39.625C66.8047 39.2656 67.7344 39.0859 68.7656 39.0859C70.3281 39.0859 71.5664 39.4805 72.4805 40.2695C73.4023 41.0508 73.8633 42.1523 73.8633 43.5742V49.0703C73.8711 50.2734 74.0391 51.1836 74.3672 51.8008V52H70.9453ZM68.1445 49.6445C68.6445 49.6445 69.1055 49.5352 69.5273 49.3164C69.9492 49.0898 70.2617 48.7891 70.4648 48.4141V46.2344H69.1992C67.5039 46.2344 66.6016 46.8203 66.4922 47.9922L66.4805 48.1914C66.4805 48.6133 66.6289 48.9609 66.9258 49.2344C67.2227 49.5078 67.6289 49.6445 68.1445 49.6445ZM69.4336 34H73.125L69.8789 37.6328H67.125L69.4336 34ZM79.582 39.3203L79.6875 40.7852C80.5938 39.6523 81.8086 39.0859 83.332 39.0859C84.6758 39.0859 85.6758 39.4805 86.332 40.2695C86.9883 41.0586 87.3242 42.2383 87.3398 43.8086V52H83.9531V43.8906C83.9531 43.1719 83.7969 42.6523 83.4844 42.332C83.1719 42.0039 82.6523 41.8398 81.9258 41.8398C80.9727 41.8398 80.2578 42.2461 79.7812 43.0586V52H76.3945V39.3203H79.582ZM89.4258 45.5664C89.4258 43.6211 89.8867 42.0547 90.8086 40.8672C91.7383 39.6797 92.9883 39.0859 94.5586 39.0859C95.9492 39.0859 97.0312 39.5625 97.8047 40.5156L97.9453 39.3203H101.016V51.5781C101.016 52.6875 100.762 53.6523 100.254 54.4727C99.7539 55.293 99.0469 55.918 98.1328 56.3477C97.2188 56.7773 96.1484 56.9922 94.9219 56.9922C93.9922 56.9922 93.0859 56.8047 92.2031 56.4297C91.3203 56.0625 90.6523 55.5859 90.1992 55L91.6992 52.9375C92.543 53.8828 93.5664 54.3555 94.7695 54.3555C95.668 54.3555 96.3672 54.1133 96.8672 53.6289C97.3672 53.1523 97.6172 52.4727 97.6172 51.5898V50.9102C96.8359 51.793 95.8086 52.2344 94.5352 52.2344C93.0117 52.2344 91.7773 51.6406 90.832 50.4531C89.8945 49.2578 89.4258 47.6758 89.4258 45.707V45.5664ZM92.8125 45.8125C92.8125 46.9609 93.043 47.8633 93.5039 48.5195C93.9648 49.168 94.5977 49.4922 95.4023 49.4922C96.4336 49.4922 97.1719 49.1055 97.6172 48.332V43C97.1641 42.2266 96.4336 41.8398 95.4258 41.8398C94.6133 41.8398 93.9727 42.1719 93.5039 42.8359C93.043 43.5 92.8125 44.4922 92.8125 45.8125Z" fill="white"/>
</g>
<defs>
<linearGradient id="paint0_linear" x1="39.5" y1="-88" x2="39.5" y2="137" gradientUnits="userSpaceOnUse">
<stop stop-color="#FFBC81"/>
<stop offset="1" stop-color="#FD9336"/>
</linearGradient>
<linearGradient id="paint1_linear" x1="423" y1="47" x2="423" y2="295" gradientUnits="userSpaceOnUse">
<stop stop-color="#FFB06A"/>
<stop offset="1" stop-color="#FC7600"/>
</linearGradient>
<linearGradient id="paint2_linear" x1="299" y1="0" x2="299" y2="40" gradientUnits="userSpaceOnUse">
<stop stop-color="#FFB06A"/>
<stop offset="1" stop-color="#FC7600"/>
</linearGradient>
<linearGradient id="paint3_linear" x1="148" y1="128" x2="148" y2="152" gradientUnits="userSpaceOnUse">
<stop stop-color="#FFB06A"/>
<stop offset="1" stop-color="#FC7600"/>
</linearGradient>
<clipPath id="clip0">
<rect width="460" height="183" rx="8" fill="white"/>
</clipPath>
</defs>
</svg>
