<svg width="460" height="183" viewBox="0 0 460 183" fill="none" xmlns="http://www.w3.org/2000/svg">
<g clip-path="url(#clip0)">
<rect x="1" width="459" height="183" rx="8" fill="#DCEAFF"/>
<circle cx="39.5" cy="24.5" r="112.5" fill="url(#paint0_linear)"/>
<circle cx="423" cy="171" r="124" fill="url(#paint1_linear)"/>
<circle cx="299" cy="20" r="16" stroke="url(#paint2_linear)" stroke-width="8"/>
<circle cx="148" cy="140" r="9.5" stroke="url(#paint3_linear)" stroke-width="5"/>
<path d="M30.1797 81.8594H26.5234V92H25.0312V81.8594H21.3828V80.625H30.1797V81.8594ZM35.1328 84.8438C34.9141 84.8073 34.6771 84.7891 34.4219 84.7891C33.474 84.7891 32.8307 85.1927 32.4922 86V92H31.0469V83.5469H32.4531L32.4766 84.5234C32.9505 83.7682 33.6224 83.3906 34.4922 83.3906C34.7734 83.3906 34.987 83.4271 35.1328 83.5V84.8438ZM41.6875 91.1641C41.125 91.8255 40.2995 92.1562 39.2109 92.1562C38.3099 92.1562 37.6224 91.8958 37.1484 91.375C36.6797 90.849 36.4427 90.0729 36.4375 89.0469V83.5469H37.8828V89.0078C37.8828 90.2891 38.4036 90.9297 39.4453 90.9297C40.5495 90.9297 41.2839 90.5182 41.6484 89.6953V83.5469H43.0938V92H41.7188L41.6875 91.1641ZM48.0625 89.8828L50.0312 83.5469H51.5781L48.1797 93.3047C47.6536 94.7109 46.8177 95.4141 45.6719 95.4141L45.3984 95.3906L44.8594 95.2891V94.1172L45.25 94.1484C45.7396 94.1484 46.1198 94.0495 46.3906 93.8516C46.6667 93.6536 46.8932 93.2917 47.0703 92.7656L47.3906 91.9062L44.375 83.5469H45.9531L48.0625 89.8828ZM60.2344 90.9766C60.75 90.9766 61.2005 90.8203 61.5859 90.5078C61.9714 90.1953 62.1849 89.8047 62.2266 89.3359H63.5938C63.5677 89.8203 63.401 90.2812 63.0938 90.7188C62.7865 91.1562 62.375 91.5052 61.8594 91.7656C61.349 92.026 60.8073 92.1562 60.2344 92.1562C59.0833 92.1562 58.1667 91.7734 57.4844 91.0078C56.8073 90.237 56.4688 89.1849 56.4688 87.8516V87.6094C56.4688 86.7865 56.6198 86.0547 56.9219 85.4141C57.224 84.7734 57.6562 84.276 58.2188 83.9219C58.7865 83.5677 59.4557 83.3906 60.2266 83.3906C61.1745 83.3906 61.9609 83.6745 62.5859 84.2422C63.2161 84.8099 63.5521 85.5469 63.5938 86.4531H62.2266C62.1849 85.9062 61.9766 85.4583 61.6016 85.1094C61.2318 84.7552 60.7734 84.5781 60.2266 84.5781C59.4922 84.5781 58.9219 84.8438 58.5156 85.375C58.1146 85.901 57.9141 86.6641 57.9141 87.6641V87.9375C57.9141 88.9115 58.1146 89.6615 58.5156 90.1875C58.9167 90.7135 59.4896 90.9766 60.2344 90.9766ZM70.4375 92C70.3542 91.8333 70.2865 91.5365 70.2344 91.1094C69.5625 91.8073 68.7604 92.1562 67.8281 92.1562C66.9948 92.1562 66.3099 91.9219 65.7734 91.4531C65.2422 90.9792 64.9766 90.3802 64.9766 89.6562C64.9766 88.776 65.3099 88.0938 65.9766 87.6094C66.6484 87.1198 67.5911 86.875 68.8047 86.875H70.2109V86.2109C70.2109 85.7057 70.0599 85.3047 69.7578 85.0078C69.4557 84.7057 69.0104 84.5547 68.4219 84.5547C67.9062 84.5547 67.474 84.6849 67.125 84.9453C66.776 85.2057 66.6016 85.5208 66.6016 85.8906H65.1484C65.1484 85.4688 65.2969 85.0625 65.5938 84.6719C65.8958 84.276 66.3021 83.9635 66.8125 83.7344C67.3281 83.5052 67.8932 83.3906 68.5078 83.3906C69.4818 83.3906 70.2448 83.6354 70.7969 84.125C71.349 84.6094 71.6354 85.2786 71.6562 86.1328V90.0234C71.6562 90.7995 71.7552 91.4167 71.9531 91.875V92H70.4375ZM68.0391 90.8984C68.4922 90.8984 68.9219 90.7812 69.3281 90.5469C69.7344 90.3125 70.0286 90.0078 70.2109 89.6328V87.8984H69.0781C67.3073 87.8984 66.4219 88.4167 66.4219 89.4531C66.4219 89.9062 66.5729 90.2604 66.875 90.5156C67.1771 90.7708 67.5651 90.8984 68.0391 90.8984ZM71.0312 82.1406V82.2188H69.8359L68.6641 80.8906L67.5 82.2188H66.3047V82.125L68.2266 80H69.1016L71.0312 82.1406ZM67.1406 93.9141C67.1406 93.6797 67.2109 93.4818 67.3516 93.3203C67.4974 93.1589 67.7109 93.0781 67.9922 93.0781C68.2734 93.0781 68.487 93.1589 68.6328 93.3203C68.7786 93.4818 68.8516 93.6797 68.8516 93.9141C68.8516 94.1484 68.7786 94.3438 68.6328 94.5C68.487 94.6562 68.2734 94.7344 67.9922 94.7344C67.7109 94.7344 67.4974 94.6562 67.3516 94.5C67.2109 94.3438 67.1406 94.1484 67.1406 93.9141ZM81.0625 87.8672C81.0625 89.1536 80.7682 90.1901 80.1797 90.9766C79.5911 91.763 78.7943 92.1562 77.7891 92.1562C76.763 92.1562 75.9557 91.8307 75.3672 91.1797V95.25H73.9219V83.5469H75.2422L75.3125 84.4844C75.901 83.7552 76.7188 83.3906 77.7656 83.3906C78.7812 83.3906 79.5833 83.7734 80.1719 84.5391C80.7656 85.3047 81.0625 86.3698 81.0625 87.7344V87.8672ZM79.6172 87.7031C79.6172 86.75 79.4141 85.9974 79.0078 85.4453C78.6016 84.8932 78.0443 84.6172 77.3359 84.6172C76.4609 84.6172 75.8047 85.0052 75.3672 85.7812V89.8203C75.7995 90.5911 76.4609 90.9766 77.3516 90.9766C78.0443 90.9766 78.5938 90.7031 79 90.1562C79.4115 89.6042 79.6172 88.7865 79.6172 87.7031ZM86.5312 87.7031C86.5312 86.3854 86.8359 85.3385 87.4453 84.5625C88.0547 83.7812 88.862 83.3906 89.8672 83.3906C90.8984 83.3906 91.7031 83.7552 92.2812 84.4844L92.3516 83.5469H93.6719V91.7969C93.6719 92.8906 93.3464 93.7526 92.6953 94.3828C92.0495 95.013 91.1797 95.3281 90.0859 95.3281C89.4766 95.3281 88.8802 95.1979 88.2969 94.9375C87.7135 94.6771 87.2682 94.3203 86.9609 93.8672L87.7109 93C88.3307 93.7656 89.0885 94.1484 89.9844 94.1484C90.6875 94.1484 91.2344 93.9505 91.625 93.5547C92.0208 93.1589 92.2188 92.6016 92.2188 91.8828V91.1562C91.6406 91.8229 90.8516 92.1562 89.8516 92.1562C88.862 92.1562 88.0599 91.7578 87.4453 90.9609C86.8359 90.1641 86.5312 89.0781 86.5312 87.7031ZM87.9844 87.8672C87.9844 88.8203 88.1797 89.5703 88.5703 90.1172C88.9609 90.6589 89.5078 90.9297 90.2109 90.9297C91.1224 90.9297 91.7917 90.5156 92.2188 89.6875V85.8281C91.776 85.0208 91.112 84.6172 90.2266 84.6172C89.5234 84.6172 88.974 84.8906 88.5781 85.4375C88.1823 85.9844 87.9844 86.7943 87.9844 87.8672ZM97.4297 92H95.9844V83.5469H97.4297V92ZM95.8672 81.3047C95.8672 81.0703 95.9375 80.8724 96.0781 80.7109C96.224 80.5495 96.4375 80.4688 96.7188 80.4688C97 80.4688 97.2135 80.5495 97.3594 80.7109C97.5052 80.8724 97.5781 81.0703 97.5781 81.3047C97.5781 81.5391 97.5052 81.7344 97.3594 81.8906C97.2135 82.0469 97 82.125 96.7188 82.125C96.4375 82.125 96.224 82.0469 96.0781 81.8906C95.9375 81.7344 95.8672 81.5391 95.8672 81.3047ZM99.3672 87.6953C99.3672 86.8672 99.526 86.125 99.8438 85.4688C100.167 84.8073 100.62 84.2969 101.203 83.9375C101.792 83.5729 102.458 83.3906 103.203 83.3906C104.281 83.3906 105.174 83.75 105.883 84.4688C106.253 84.4271 106.521 84.276 106.688 84.0156C106.854 83.7552 106.938 83.2917 106.938 82.625H108.109C108.109 84.1406 107.57 85.0312 106.492 85.2969C106.872 86.0156 107.062 86.8151 107.062 87.6953V87.8672C107.062 88.6901 106.901 89.4323 106.578 90.0938C106.255 90.7552 105.802 91.2656 105.219 91.625C104.635 91.9792 103.969 92.1562 103.219 92.1562C102.062 92.1562 101.13 91.7578 100.422 90.9609C99.7188 90.1589 99.3672 89.1042 99.3672 87.7969V87.6953ZM100.812 87.8672C100.812 88.8047 101.029 89.5573 101.461 90.125C101.898 90.6927 102.484 90.9766 103.219 90.9766C103.943 90.9766 104.521 90.6927 104.953 90.125C105.391 89.5521 105.609 88.7839 105.609 87.8203V87.6953C105.609 86.7526 105.388 85.9974 104.945 85.4297C104.508 84.862 103.927 84.5781 103.203 84.5781C102.484 84.5781 101.906 84.862 101.469 85.4297C101.031 85.9974 100.812 86.8099 100.812 87.8672ZM103.914 80H105.664L103.57 82.2969H102.406L103.914 80ZM110.461 92H109.016V83.5469H110.461V92ZM108.898 81.3047C108.898 81.0703 108.969 80.8724 109.109 80.7109C109.255 80.5495 109.469 80.4688 109.75 80.4688C110.031 80.4688 110.245 80.5495 110.391 80.7109C110.536 80.8724 110.609 81.0703 110.609 81.3047C110.609 81.5391 110.536 81.7344 110.391 81.8906C110.245 82.0469 110.031 82.125 109.75 82.125C109.469 82.125 109.255 82.0469 109.109 81.8906C108.969 81.7344 108.898 81.5391 108.898 81.3047ZM118.195 84.5703C118.836 83.7839 119.669 83.3906 120.695 83.3906C122.482 83.3906 123.383 84.3984 123.398 86.4141V92H121.953V86.4062C121.948 85.7969 121.807 85.3464 121.531 85.0547C121.26 84.763 120.836 84.6172 120.258 84.6172C119.789 84.6172 119.378 84.7422 119.023 84.9922C118.669 85.2422 118.393 85.5703 118.195 85.9766V92H116.75V80H118.195V84.5703ZM130.781 92C130.698 91.8333 130.63 91.5365 130.578 91.1094C129.906 91.8073 129.104 92.1562 128.172 92.1562C127.339 92.1562 126.654 91.9219 126.117 91.4531C125.586 90.9792 125.32 90.3802 125.32 89.6562C125.32 88.776 125.654 88.0938 126.32 87.6094C126.992 87.1198 127.935 86.875 129.148 86.875H130.555V86.2109C130.555 85.7057 130.404 85.3047 130.102 85.0078C129.799 84.7057 129.354 84.5547 128.766 84.5547C128.25 84.5547 127.818 84.6849 127.469 84.9453C127.12 85.2057 126.945 85.5208 126.945 85.8906H125.492C125.492 85.4688 125.641 85.0625 125.938 84.6719C126.24 84.276 126.646 83.9635 127.156 83.7344C127.672 83.5052 128.237 83.3906 128.852 83.3906C129.826 83.3906 130.589 83.6354 131.141 84.125C131.693 84.6094 131.979 85.2786 132 86.1328V90.0234C132 90.7995 132.099 91.4167 132.297 91.875V92H130.781ZM128.383 90.8984C128.836 90.8984 129.266 90.7812 129.672 90.5469C130.078 90.3125 130.372 90.0078 130.555 89.6328V87.8984H129.422C127.651 87.8984 126.766 88.4167 126.766 89.4531C126.766 89.9062 126.917 90.2604 127.219 90.5156C127.521 90.7708 127.909 90.8984 128.383 90.8984ZM127.484 93.9141C127.484 93.6797 127.555 93.4818 127.695 93.3203C127.841 93.1589 128.055 93.0781 128.336 93.0781C128.617 93.0781 128.831 93.1589 128.977 93.3203C129.122 93.4818 129.195 93.6797 129.195 93.9141C129.195 94.1484 129.122 94.3438 128.977 94.5C128.831 94.6562 128.617 94.7344 128.336 94.7344C128.055 94.7344 127.841 94.6562 127.695 94.5C127.555 94.3438 127.484 94.1484 127.484 93.9141ZM135.633 83.5469L135.68 84.6094C136.326 83.7969 137.169 83.3906 138.211 83.3906C139.997 83.3906 140.898 84.3984 140.914 86.4141V92H139.469V86.4062C139.464 85.7969 139.323 85.3464 139.047 85.0547C138.776 84.763 138.352 84.6172 137.773 84.6172C137.305 84.6172 136.893 84.7422 136.539 84.9922C136.185 85.2422 135.909 85.5703 135.711 85.9766V92H134.266V83.5469H135.633Z" fill="#22539D"/>
<path d="M29.0322 148.127H25.833V157H24.5273V148.127H21.335V147.047H29.0322V148.127ZM31.5752 150.499C32.1357 149.811 32.8649 149.467 33.7627 149.467C35.3258 149.467 36.1143 150.349 36.1279 152.112V157H34.8633V152.105C34.8587 151.572 34.7357 151.178 34.4941 150.923C34.2572 150.668 33.8857 150.54 33.3799 150.54C32.9697 150.54 32.6097 150.649 32.2998 150.868C31.9899 151.087 31.7484 151.374 31.5752 151.729V157H30.3105V146.5H31.5752V150.499ZM37.6865 153.233C37.6865 152.509 37.8255 151.859 38.1035 151.285C38.3861 150.706 38.7826 150.26 39.293 149.945C39.8079 149.626 40.3913 149.467 41.043 149.467C41.9863 149.467 42.7679 149.781 43.3877 150.41C43.7113 150.374 43.946 150.242 44.0918 150.014C44.2376 149.786 44.3105 149.38 44.3105 148.797H45.3359C45.3359 150.123 44.8643 150.902 43.9209 151.135C44.2536 151.764 44.4199 152.463 44.4199 153.233V153.384C44.4199 154.104 44.2786 154.753 43.9961 155.332C43.7135 155.911 43.3171 156.357 42.8066 156.672C42.2962 156.982 41.7129 157.137 41.0566 157.137C40.0449 157.137 39.2292 156.788 38.6094 156.091C37.9941 155.389 37.6865 154.466 37.6865 153.322V153.233ZM38.9512 153.384C38.9512 154.204 39.1403 154.863 39.5186 155.359C39.9014 155.856 40.4141 156.104 41.0566 156.104C41.6901 156.104 42.196 155.856 42.5742 155.359C42.957 154.858 43.1484 154.186 43.1484 153.343V153.233C43.1484 152.409 42.9548 151.748 42.5674 151.251C42.1846 150.754 41.6764 150.506 41.043 150.506C40.4141 150.506 39.9082 150.754 39.5254 151.251C39.1426 151.748 38.9512 152.459 38.9512 153.384ZM41.7676 148.51H40.6807L38.917 146.5H40.4414L41.7676 148.51ZM47.3936 157H46.1289V149.604H47.3936V157ZM46.0264 147.642C46.0264 147.437 46.0879 147.263 46.2109 147.122C46.3385 146.981 46.5254 146.91 46.7715 146.91C47.0176 146.91 47.2044 146.981 47.332 147.122C47.4596 147.263 47.5234 147.437 47.5234 147.642C47.5234 147.847 47.4596 148.018 47.332 148.154C47.2044 148.291 47.0176 148.359 46.7715 148.359C46.5254 148.359 46.3385 148.291 46.2109 148.154C46.0879 148.018 46.0264 147.847 46.0264 147.642ZM54.1611 150.499C54.7217 149.811 55.4508 149.467 56.3486 149.467C57.9118 149.467 58.7002 150.349 58.7139 152.112V157H57.4492V152.105C57.4447 151.572 57.3216 151.178 57.0801 150.923C56.8431 150.668 56.4717 150.54 55.9658 150.54C55.5557 150.54 55.1956 150.649 54.8857 150.868C54.5758 151.087 54.3343 151.374 54.1611 151.729V157H52.8965V146.5H54.1611V150.499ZM65.1738 157C65.1009 156.854 65.0417 156.594 64.9961 156.221C64.4082 156.831 63.7064 157.137 62.8906 157.137C62.1615 157.137 61.5622 156.932 61.0928 156.521C60.6279 156.107 60.3955 155.583 60.3955 154.949C60.3955 154.179 60.6872 153.582 61.2705 153.158C61.8584 152.73 62.6833 152.516 63.7451 152.516H64.9756V151.935C64.9756 151.493 64.8434 151.142 64.5791 150.882C64.3148 150.618 63.9251 150.485 63.4102 150.485C62.959 150.485 62.5807 150.599 62.2754 150.827C61.9701 151.055 61.8174 151.331 61.8174 151.654H60.5459C60.5459 151.285 60.6758 150.93 60.9355 150.588C61.1999 150.242 61.5553 149.968 62.002 149.768C62.4531 149.567 62.9476 149.467 63.4854 149.467C64.3376 149.467 65.0052 149.681 65.4883 150.109C65.9714 150.533 66.222 151.119 66.2402 151.866V155.271C66.2402 155.95 66.3268 156.49 66.5 156.891V157H65.1738ZM63.0752 156.036C63.4717 156.036 63.8477 155.934 64.2031 155.729C64.5586 155.523 64.8161 155.257 64.9756 154.929V153.411H63.9844C62.4349 153.411 61.6602 153.865 61.6602 154.771C61.6602 155.168 61.7923 155.478 62.0566 155.701C62.321 155.924 62.6605 156.036 63.0752 156.036ZM62.2891 158.675C62.2891 158.47 62.3506 158.297 62.4736 158.155C62.6012 158.014 62.7881 157.943 63.0342 157.943C63.2803 157.943 63.4671 158.014 63.5947 158.155C63.7223 158.297 63.7861 158.47 63.7861 158.675C63.7861 158.88 63.7223 159.051 63.5947 159.188C63.4671 159.324 63.2803 159.393 63.0342 159.393C62.7881 159.393 62.6012 159.324 62.4736 159.188C62.3506 159.051 62.2891 158.88 62.2891 158.675ZM69.4189 149.604L69.46 150.533C70.0251 149.822 70.7633 149.467 71.6748 149.467C73.238 149.467 74.0264 150.349 74.04 152.112V157H72.7754V152.105C72.7708 151.572 72.6478 151.178 72.4062 150.923C72.1693 150.668 71.7979 150.54 71.292 150.54C70.8818 150.54 70.5218 150.649 70.2119 150.868C69.902 151.087 69.6605 151.374 69.4873 151.729V157H68.2227V149.604H69.4189ZM83.7266 155.038C83.7266 154.696 83.5967 154.432 83.3369 154.245C83.0817 154.054 82.6328 153.89 81.9902 153.753C81.3522 153.616 80.8441 153.452 80.4658 153.261C80.0921 153.069 79.8141 152.841 79.6318 152.577C79.4541 152.313 79.3652 151.998 79.3652 151.634C79.3652 151.028 79.6204 150.515 80.1309 150.096C80.6458 149.676 81.3021 149.467 82.0996 149.467C82.9382 149.467 83.6172 149.683 84.1367 150.116C84.6608 150.549 84.9229 151.103 84.9229 151.777H83.6514C83.6514 151.431 83.5033 151.132 83.207 150.882C82.9154 150.631 82.5462 150.506 82.0996 150.506C81.6393 150.506 81.2793 150.606 81.0195 150.807C80.7598 151.007 80.6299 151.269 80.6299 151.593C80.6299 151.898 80.7507 152.128 80.9922 152.283C81.2337 152.438 81.6689 152.586 82.2979 152.728C82.9313 152.869 83.444 153.037 83.8359 153.233C84.2279 153.429 84.5173 153.666 84.7041 153.944C84.8955 154.218 84.9912 154.553 84.9912 154.949C84.9912 155.61 84.7269 156.141 84.1982 156.542C83.6696 156.938 82.9837 157.137 82.1406 157.137C81.5482 157.137 81.0241 157.032 80.5684 156.822C80.1126 156.613 79.7549 156.321 79.4951 155.947C79.2399 155.569 79.1123 155.161 79.1123 154.724H80.377C80.3997 155.147 80.5684 155.485 80.8828 155.735C81.2018 155.981 81.6211 156.104 82.1406 156.104C82.6191 156.104 83.002 156.009 83.2891 155.817C83.5807 155.621 83.7266 155.362 83.7266 155.038ZM94.5342 149.016C94.5342 149.836 94.3656 150.415 94.0283 150.752C93.6956 151.085 93.1647 151.26 92.4355 151.278V157H91.2324L91.2051 156.269C90.7129 156.847 89.9906 157.137 89.0381 157.137C88.2497 157.137 87.6481 156.909 87.2334 156.453C86.8232 155.993 86.6159 155.314 86.6113 154.416V149.604H87.876V154.382C87.876 155.503 88.3317 156.063 89.2432 156.063C90.2093 156.063 90.8519 155.703 91.1709 154.983V149.604H92.4355V150.499C92.7454 150.49 92.9779 150.447 93.1328 150.369C93.2878 150.287 93.3971 150.164 93.4609 150C93.5293 149.836 93.5635 149.508 93.5635 149.016H94.5342ZM89.2227 148.544L89.2158 147.498C89.5576 147.475 89.8083 147.43 89.9678 147.361C90.1273 147.293 90.207 147.17 90.207 146.992C90.207 146.814 90.1022 146.682 89.8926 146.596C89.6875 146.505 89.4141 146.459 89.0723 146.459L89.1201 145.734C89.7992 145.734 90.3141 145.853 90.665 146.09C91.016 146.322 91.1914 146.632 91.1914 147.02C91.1914 147.298 91.1025 147.528 90.9248 147.71C90.7471 147.892 90.4827 148.008 90.1318 148.059L90.125 148.544H89.2227ZM98.4717 153.24C98.4717 152.105 98.7406 151.194 99.2783 150.506C99.8161 149.813 100.52 149.467 101.391 149.467C102.257 149.467 102.942 149.763 103.448 150.355V146.5H104.713V157H103.551L103.489 156.207C102.983 156.827 102.279 157.137 101.377 157.137C100.52 157.137 99.8206 156.786 99.2783 156.084C98.7406 155.382 98.4717 154.466 98.4717 153.336V153.24ZM99.7363 153.384C99.7363 154.222 99.9095 154.879 100.256 155.353C100.602 155.826 101.081 156.063 101.691 156.063C102.493 156.063 103.079 155.703 103.448 154.983V151.586C103.07 150.889 102.489 150.54 101.705 150.54C101.085 150.54 100.602 150.779 100.256 151.258C99.9095 151.736 99.7363 152.445 99.7363 153.384ZM111.248 156.269C110.756 156.847 110.034 157.137 109.081 157.137C108.293 157.137 107.691 156.909 107.276 156.453C106.866 155.993 106.659 155.314 106.654 154.416V149.604H107.919V154.382C107.919 155.503 108.375 156.063 109.286 156.063C110.252 156.063 110.895 155.703 111.214 154.983V149.604H112.479V157H111.275L111.248 156.269ZM108.411 158.675C108.411 158.47 108.473 158.297 108.596 158.155C108.723 158.014 108.91 157.943 109.156 157.943C109.402 157.943 109.589 158.014 109.717 158.155C109.844 158.297 109.908 158.47 109.908 158.675C109.908 158.88 109.844 159.051 109.717 159.188C109.589 159.324 109.402 159.393 109.156 159.393C108.91 159.393 108.723 159.324 108.596 159.188C108.473 159.051 108.411 158.88 108.411 158.675ZM115.603 149.604L115.644 150.533C116.209 149.822 116.947 149.467 117.858 149.467C119.422 149.467 120.21 150.349 120.224 152.112V157H118.959V152.105C118.954 151.572 118.831 151.178 118.59 150.923C118.353 150.668 117.981 150.54 117.476 150.54C117.065 150.54 116.705 150.649 116.396 150.868C116.086 151.087 115.844 151.374 115.671 151.729V157H114.406V149.604H115.603ZM121.83 153.24C121.83 152.087 122.097 151.171 122.63 150.492C123.163 149.809 123.869 149.467 124.749 149.467C125.651 149.467 126.355 149.786 126.861 150.424L126.923 149.604H128.078V156.822C128.078 157.779 127.793 158.534 127.224 159.085C126.659 159.636 125.897 159.912 124.94 159.912C124.407 159.912 123.885 159.798 123.375 159.57C122.865 159.342 122.475 159.03 122.206 158.634L122.862 157.875C123.405 158.545 124.068 158.88 124.852 158.88C125.467 158.88 125.945 158.707 126.287 158.36C126.633 158.014 126.807 157.526 126.807 156.897V156.262C126.301 156.845 125.61 157.137 124.735 157.137C123.869 157.137 123.168 156.788 122.63 156.091C122.097 155.394 121.83 154.443 121.83 153.24ZM123.102 153.384C123.102 154.218 123.272 154.874 123.614 155.353C123.956 155.826 124.435 156.063 125.05 156.063C125.847 156.063 126.433 155.701 126.807 154.977V151.6C126.419 150.893 125.838 150.54 125.063 150.54C124.448 150.54 123.967 150.779 123.621 151.258C123.275 151.736 123.102 152.445 123.102 153.384ZM140.684 148.571H139.398V157H138.236L138.175 156.207C137.669 156.827 136.965 157.137 136.062 157.137C135.206 157.137 134.506 156.786 133.964 156.084C133.426 155.382 133.157 154.466 133.157 153.336V153.24C133.157 152.105 133.426 151.194 133.964 150.506C134.502 149.813 135.206 149.467 136.076 149.467C136.942 149.467 137.628 149.763 138.134 150.355V148.571H136.329V147.539H138.134V146.5H139.398V147.539H140.684V148.571ZM134.422 153.384C134.422 154.222 134.595 154.879 134.941 155.353C135.288 155.826 135.766 156.063 136.377 156.063C137.179 156.063 137.765 155.703 138.134 154.983V151.586C137.756 150.889 137.174 150.54 136.391 150.54C135.771 150.54 135.288 150.779 134.941 151.258C134.595 151.736 134.422 152.445 134.422 153.384ZM144.901 157.137C143.899 157.137 143.083 156.809 142.454 156.152C141.825 155.492 141.511 154.61 141.511 153.507V153.274C141.511 152.541 141.65 151.887 141.928 151.312C142.21 150.734 142.602 150.283 143.104 149.959C143.609 149.631 144.156 149.467 144.744 149.467C145.706 149.467 146.453 149.784 146.986 150.417C147.52 151.05 147.786 151.957 147.786 153.138V153.664H142.775C142.794 154.393 143.006 154.983 143.411 155.435C143.821 155.881 144.341 156.104 144.97 156.104C145.416 156.104 145.795 156.013 146.104 155.831C146.414 155.649 146.686 155.407 146.918 155.106L147.69 155.708C147.071 156.66 146.141 157.137 144.901 157.137ZM144.744 150.506C144.234 150.506 143.805 150.693 143.459 151.066C143.113 151.436 142.898 151.955 142.816 152.625H146.521V152.529C146.485 151.887 146.312 151.39 146.002 151.039C145.692 150.684 145.273 150.506 144.744 150.506ZM144.225 146.712H145.264L147.246 148.51H145.899L144.744 147.423L143.582 148.51H142.229L144.225 146.712ZM147.711 145.529H149.078L147.704 147.3H146.74L147.711 145.529ZM150.452 149.604L150.493 150.533C151.058 149.822 151.797 149.467 152.708 149.467C154.271 149.467 155.06 150.349 155.073 152.112V157H153.809V152.105C153.804 151.572 153.681 151.178 153.439 150.923C153.202 150.668 152.831 150.54 152.325 150.54C151.915 150.54 151.555 150.649 151.245 150.868C150.935 151.087 150.694 151.374 150.521 151.729V157H149.256V149.604H150.452Z" fill="#767676"/>
<path d="M320.243 157H318.589V149.009L316.148 149.843V148.441L320.031 147.013H320.243V157ZM328.412 152.837C327.856 153.425 327.207 153.719 326.464 153.719C325.589 153.719 324.892 153.413 324.372 152.803C323.853 152.188 323.593 151.381 323.593 150.383C323.593 149.727 323.725 149.132 323.989 148.599C324.254 148.065 324.63 147.651 325.117 147.354C325.605 147.058 326.17 146.91 326.812 146.91C327.815 146.91 328.61 147.284 329.198 148.031C329.786 148.779 330.08 149.779 330.08 151.032V151.497C330.08 153.293 329.674 154.662 328.863 155.605C328.052 156.549 326.842 157.027 325.233 157.041H325.035V155.667H325.274C326.254 155.653 327.006 155.419 327.53 154.963C328.054 154.503 328.348 153.794 328.412 152.837ZM326.812 152.42C327.145 152.42 327.457 152.324 327.749 152.133C328.041 151.941 328.266 151.677 328.426 151.34V150.69C328.426 149.957 328.275 149.367 327.975 148.92C327.674 148.473 327.284 148.25 326.806 148.25C326.327 148.25 325.944 148.448 325.657 148.845C325.375 149.237 325.233 149.733 325.233 150.335C325.233 150.959 325.377 151.463 325.664 151.846C325.951 152.229 326.334 152.42 326.812 152.42ZM332.767 155.25C333.076 155.25 333.316 155.339 333.484 155.517C333.653 155.69 333.737 155.909 333.737 156.173C333.737 156.433 333.653 156.649 333.484 156.822C333.316 156.991 333.076 157.075 332.767 157.075C332.47 157.075 332.236 156.991 332.062 156.822C331.889 156.654 331.803 156.437 331.803 156.173C331.803 155.909 331.887 155.69 332.056 155.517C332.224 155.339 332.461 155.25 332.767 155.25ZM332.767 149.446C333.076 149.446 333.316 149.535 333.484 149.713C333.653 149.886 333.737 150.105 333.737 150.369C333.737 150.629 333.653 150.845 333.484 151.019C333.316 151.187 333.076 151.271 332.767 151.271C332.47 151.271 332.236 151.187 332.062 151.019C331.889 150.85 331.803 150.633 331.803 150.369C331.803 150.105 331.887 149.886 332.056 149.713C332.224 149.535 332.461 149.446 332.767 149.446ZM341.865 152.81C341.865 154.241 341.596 155.321 341.059 156.05C340.525 156.774 339.712 157.137 338.618 157.137C337.543 157.137 336.731 156.784 336.185 156.077C335.642 155.366 335.364 154.316 335.351 152.926V151.203C335.351 149.772 335.617 148.699 336.15 147.983C336.688 147.268 337.506 146.91 338.604 146.91C339.694 146.91 340.505 147.259 341.038 147.956C341.576 148.653 341.852 149.697 341.865 151.087V152.81ZM340.204 150.95C340.204 150.016 340.076 149.332 339.821 148.899C339.566 148.462 339.16 148.243 338.604 148.243C338.062 148.243 337.663 148.451 337.408 148.865C337.153 149.275 337.019 149.918 337.005 150.793V153.049C337.005 153.979 337.135 154.671 337.395 155.127C337.654 155.583 338.062 155.811 338.618 155.811C339.151 155.811 339.546 155.601 339.801 155.182C340.056 154.758 340.19 154.097 340.204 153.199V150.95ZM349.822 152.81C349.822 154.241 349.553 155.321 349.016 156.05C348.482 156.774 347.669 157.137 346.575 157.137C345.5 157.137 344.688 156.784 344.142 156.077C343.599 155.366 343.321 154.316 343.308 152.926V151.203C343.308 149.772 343.574 148.699 344.107 147.983C344.645 147.268 345.463 146.91 346.562 146.91C347.651 146.91 348.462 147.259 348.995 147.956C349.533 148.653 349.809 149.697 349.822 151.087V152.81ZM348.161 150.95C348.161 150.016 348.034 149.332 347.778 148.899C347.523 148.462 347.118 148.243 346.562 148.243C346.019 148.243 345.62 148.451 345.365 148.865C345.11 149.275 344.976 149.918 344.962 150.793V153.049C344.962 153.979 345.092 154.671 345.352 155.127C345.611 155.583 346.019 155.811 346.575 155.811C347.108 155.811 347.503 155.601 347.758 155.182C348.013 154.758 348.147 154.097 348.161 153.199V150.95ZM361.471 157H354.778V155.858L358.094 152.242C358.572 151.709 358.912 151.265 359.112 150.909C359.317 150.549 359.42 150.189 359.42 149.829C359.42 149.355 359.285 148.972 359.017 148.681C358.752 148.389 358.395 148.243 357.943 148.243C357.406 148.243 356.989 148.407 356.692 148.735C356.396 149.063 356.248 149.512 356.248 150.082H354.587C354.587 149.476 354.724 148.931 354.997 148.448C355.275 147.961 355.669 147.582 356.18 147.313C356.695 147.045 357.287 146.91 357.957 146.91C358.923 146.91 359.684 147.154 360.24 147.642C360.801 148.125 361.081 148.795 361.081 149.651C361.081 150.148 360.94 150.67 360.657 151.217C360.379 151.759 359.921 152.377 359.283 153.069L356.85 155.674H361.471V157ZM367.445 152.837C366.889 153.425 366.24 153.719 365.497 153.719C364.622 153.719 363.925 153.413 363.405 152.803C362.886 152.188 362.626 151.381 362.626 150.383C362.626 149.727 362.758 149.132 363.022 148.599C363.287 148.065 363.663 147.651 364.15 147.354C364.638 147.058 365.203 146.91 365.846 146.91C366.848 146.91 367.644 147.284 368.231 148.031C368.819 148.779 369.113 149.779 369.113 151.032V151.497C369.113 153.293 368.708 154.662 367.896 155.605C367.085 156.549 365.875 157.027 364.267 157.041H364.068V155.667H364.308C365.287 155.653 366.039 155.419 366.563 154.963C367.088 154.503 367.382 153.794 367.445 152.837ZM365.846 152.42C366.178 152.42 366.491 152.324 366.782 152.133C367.074 151.941 367.299 151.677 367.459 151.34V150.69C367.459 149.957 367.309 149.367 367.008 148.92C366.707 148.473 366.317 148.25 365.839 148.25C365.36 148.25 364.978 148.448 364.69 148.845C364.408 149.237 364.267 149.733 364.267 150.335C364.267 150.959 364.41 151.463 364.697 151.846C364.984 152.229 365.367 152.42 365.846 152.42ZM371.267 157.854H369.961L373.878 147.047H375.184L371.267 157.854ZM382.717 152.81C382.717 154.241 382.448 155.321 381.91 156.05C381.377 156.774 380.563 157.137 379.47 157.137C378.394 157.137 377.583 156.784 377.036 156.077C376.494 155.366 376.216 154.316 376.202 152.926V151.203C376.202 149.772 376.469 148.699 377.002 147.983C377.54 147.268 378.358 146.91 379.456 146.91C380.545 146.91 381.356 147.259 381.89 147.956C382.427 148.653 382.703 149.697 382.717 151.087V152.81ZM381.056 150.95C381.056 150.016 380.928 149.332 380.673 148.899C380.418 148.462 380.012 148.243 379.456 148.243C378.914 148.243 378.515 148.451 378.26 148.865C378.005 149.275 377.87 149.918 377.856 150.793V153.049C377.856 153.979 377.986 154.671 378.246 155.127C378.506 155.583 378.914 155.811 379.47 155.811C380.003 155.811 380.397 155.601 380.652 155.182C380.908 154.758 381.042 154.097 381.056 153.199V150.95ZM390.811 147.97L386.832 157H385.089L389.061 148.38H383.913V147.047H390.811V147.97ZM392.718 157.854H391.412L395.329 147.047H396.635L392.718 157.854ZM404.373 157H397.681V155.858L400.996 152.242C401.475 151.709 401.814 151.265 402.015 150.909C402.22 150.549 402.322 150.189 402.322 149.829C402.322 149.355 402.188 148.972 401.919 148.681C401.655 148.389 401.297 148.243 400.846 148.243C400.308 148.243 399.891 148.407 399.595 148.735C399.299 149.063 399.15 149.512 399.15 150.082H397.489C397.489 149.476 397.626 148.931 397.899 148.448C398.177 147.961 398.572 147.582 399.082 147.313C399.597 147.045 400.189 146.91 400.859 146.91C401.826 146.91 402.587 147.154 403.143 147.642C403.703 148.125 403.983 148.795 403.983 149.651C403.983 150.148 403.842 150.67 403.56 151.217C403.282 151.759 402.824 152.377 402.186 153.069L399.752 155.674H404.373V157ZM412.125 152.81C412.125 154.241 411.856 155.321 411.318 156.05C410.785 156.774 409.972 157.137 408.878 157.137C407.802 157.137 406.991 156.784 406.444 156.077C405.902 155.366 405.624 154.316 405.61 152.926V151.203C405.61 149.772 405.877 148.699 406.41 147.983C406.948 147.268 407.766 146.91 408.864 146.91C409.953 146.91 410.765 147.259 411.298 147.956C411.836 148.653 412.111 149.697 412.125 151.087V152.81ZM410.464 150.95C410.464 150.016 410.336 149.332 410.081 148.899C409.826 148.462 409.42 148.243 408.864 148.243C408.322 148.243 407.923 148.451 407.668 148.865C407.413 149.275 407.278 149.918 407.265 150.793V153.049C407.265 153.979 407.395 154.671 407.654 155.127C407.914 155.583 408.322 155.811 408.878 155.811C409.411 155.811 409.805 155.601 410.061 155.182C410.316 154.758 410.45 154.097 410.464 153.199V150.95ZM420.287 157H413.595V155.858L416.91 152.242C417.389 151.709 417.728 151.265 417.929 150.909C418.134 150.549 418.236 150.189 418.236 149.829C418.236 149.355 418.102 148.972 417.833 148.681C417.569 148.389 417.211 148.243 416.76 148.243C416.222 148.243 415.805 148.407 415.509 148.735C415.213 149.063 415.064 149.512 415.064 150.082H413.403C413.403 149.476 413.54 148.931 413.813 148.448C414.091 147.961 414.486 147.582 414.996 147.313C415.511 147.045 416.104 146.91 416.773 146.91C417.74 146.91 418.501 147.154 419.057 147.642C419.617 148.125 419.897 148.795 419.897 149.651C419.897 150.148 419.756 150.67 419.474 151.217C419.196 151.759 418.738 152.377 418.1 153.069L415.666 155.674H420.287V157ZM426.05 157H424.396V149.009L421.955 149.843V148.441L425.838 147.013H426.05V157Z" fill="#333333"/>
<path d="M22.5234 52V34.9375H27.7734C29.2734 34.9375 30.6133 35.2773 31.793 35.957C32.9805 36.6289 33.9062 37.5898 34.5703 38.8398C35.2344 40.082 35.5664 41.4961 35.5664 43.082V43.8672C35.5664 45.4531 35.2383 46.8633 34.582 48.0977C33.9336 49.332 33.0156 50.2891 31.8281 50.9688C30.6406 51.6484 29.3008 51.9922 27.8086 52H22.5234ZM26.0391 37.7852V49.1758H27.7383C29.1133 49.1758 30.1641 48.7266 30.8906 47.8281C31.6172 46.9297 31.9883 45.6445 32.0039 43.9727V43.0703C32.0039 41.3359 31.6445 40.0234 30.9258 39.1328C30.207 38.2344 29.1562 37.7852 27.7734 37.7852H26.0391ZM45.5039 50.7109C44.668 51.7266 43.5117 52.2344 42.0352 52.2344C40.6758 52.2344 39.6367 51.8438 38.918 51.0625C38.207 50.2812 37.8438 49.1367 37.8281 47.6289V39.3203H41.2148V47.5117C41.2148 48.832 41.8164 49.4922 43.0195 49.4922C44.168 49.4922 44.957 49.0938 45.3867 48.2969V39.3203H48.7852V52H45.5977L45.5039 50.7109ZM45 37.6328H42.2227L38.9883 34H42.6797L45 37.6328ZM54.457 39.3203L54.5625 40.7852C55.4688 39.6523 56.6836 39.0859 58.207 39.0859C59.5508 39.0859 60.5508 39.4805 61.207 40.2695C61.8633 41.0586 62.1992 42.2383 62.2148 43.8086V52H58.8281V43.8906C58.8281 43.1719 58.6719 42.6523 58.3594 42.332C58.0469 42.0039 57.5273 41.8398 56.8008 41.8398C55.8477 41.8398 55.1328 42.2461 54.6562 43.0586V52H51.2695V39.3203H54.457ZM64.3008 45.5664C64.3008 43.6211 64.7617 42.0547 65.6836 40.8672C66.6133 39.6797 67.8633 39.0859 69.4336 39.0859C70.8242 39.0859 71.9062 39.5625 72.6797 40.5156L72.8203 39.3203H75.8906V51.5781C75.8906 52.6875 75.6367 53.6523 75.1289 54.4727C74.6289 55.293 73.9219 55.918 73.0078 56.3477C72.0938 56.7773 71.0234 56.9922 69.7969 56.9922C68.8672 56.9922 67.9609 56.8047 67.0781 56.4297C66.1953 56.0625 65.5273 55.5859 65.0742 55L66.5742 52.9375C67.418 53.8828 68.4414 54.3555 69.6445 54.3555C70.543 54.3555 71.2422 54.1133 71.7422 53.6289C72.2422 53.1523 72.4922 52.4727 72.4922 51.5898V50.9102C71.7109 51.793 70.6836 52.2344 69.4102 52.2344C67.8867 52.2344 66.6523 51.6406 65.707 50.4531C64.7695 49.2578 64.3008 47.6758 64.3008 45.707V45.5664ZM67.6875 45.8125C67.6875 46.9609 67.918 47.8633 68.3789 48.5195C68.8398 49.168 69.4727 49.4922 70.2773 49.4922C71.3086 49.4922 72.0469 49.1055 72.4922 48.332V43C72.0391 42.2266 71.3086 41.8398 70.3008 41.8398C69.4883 41.8398 68.8477 42.1719 68.3789 42.8359C67.918 43.5 67.6875 44.4922 67.6875 45.8125ZM88.5352 36.2031V39.3203H90.7031V41.8047H88.5352V48.1328C88.5352 48.6016 88.625 48.9375 88.8047 49.1406C88.9844 49.3438 89.3281 49.4453 89.8359 49.4453C90.2109 49.4453 90.543 49.418 90.832 49.3633V51.9297C90.168 52.1328 89.4844 52.2344 88.7812 52.2344C86.4062 52.2344 85.1953 51.0352 85.1484 48.6367V41.8047H83.2969V39.3203H85.1484V36.2031H88.5352ZM95.8945 40.7031C96.793 39.625 97.9219 39.0859 99.2812 39.0859C102.031 39.0859 103.426 40.6836 103.465 43.8789V52H100.078V43.9727C100.078 43.2461 99.9219 42.7109 99.6094 42.3672C99.2969 42.0156 98.7773 41.8398 98.0508 41.8398C97.0586 41.8398 96.3398 42.2227 95.8945 42.9883V52H92.5078V34H95.8945V40.7031ZM120.363 38.207C120.363 39.6289 120.082 40.6836 119.52 41.3711C118.965 42.0508 118.09 42.4531 116.895 42.5781V52H113.707L113.613 50.7109C112.777 51.7266 111.621 52.2344 110.145 52.2344C108.785 52.2344 107.746 51.8438 107.027 51.0625C106.316 50.2812 105.953 49.1367 105.938 47.6289V39.3203H109.324V47.5117C109.324 48.832 109.926 49.4922 111.129 49.4922C112.277 49.4922 113.066 49.0938 113.496 48.2969V39.3203H116.895V40.9492C117.426 40.832 117.797 40.5898 118.008 40.2227C118.227 39.8555 118.336 39.1836 118.336 38.207H120.363ZM110.191 37.4102L110.016 35.8398C110.586 35.8086 110.996 35.7383 111.246 35.6289C111.504 35.5117 111.633 35.3281 111.633 35.0781C111.633 34.5391 111.078 34.2695 109.969 34.2695L110.051 32.6875C111.52 32.6875 112.625 32.8906 113.367 33.2969C114.117 33.7031 114.492 34.2617 114.492 34.9727C114.492 35.4336 114.332 35.8125 114.012 36.1094C113.691 36.3984 113.266 36.582 112.734 36.6602V37.4102H110.191Z" fill="#22539D"/>
</g>
<defs>
<linearGradient id="paint0_linear" x1="39.5" y1="-88" x2="39.5" y2="137" gradientUnits="userSpaceOnUse">
<stop stop-color="#5B9DFF" stop-opacity="0.78"/>
<stop offset="1" stop-color="#A6C9FF" stop-opacity="0.31"/>
</linearGradient>
<linearGradient id="paint1_linear" x1="423" y1="47" x2="423" y2="295" gradientUnits="userSpaceOnUse">
<stop stop-color="#D0E3FF" stop-opacity="0.78"/>
<stop offset="1" stop-color="#568FE4" stop-opacity="0.31"/>
</linearGradient>
<linearGradient id="paint2_linear" x1="299" y1="0" x2="299" y2="40" gradientUnits="userSpaceOnUse">
<stop stop-color="#D0E3FF" stop-opacity="0.78"/>
<stop offset="1" stop-color="#568FE4" stop-opacity="0.31"/>
</linearGradient>
<linearGradient id="paint3_linear" x1="148" y1="128" x2="148" y2="152" gradientUnits="userSpaceOnUse">
<stop stop-color="#D0E3FF" stop-opacity="0.78"/>
<stop offset="1" stop-color="#568FE4" stop-opacity="0.31"/>
</linearGradient>
<clipPath id="clip0">
<rect width="460" height="183" rx="8" fill="white"/>
</clipPath>
</defs>
</svg>
